<svg width="100" height="100" viewBox="0 0 100 100" fill="none" xmlns="http://www.w3.org/2000/svg">
<g clip-path="url(#clip0_0_344)">
<path fill-rule="evenodd" clip-rule="evenodd" d="M30.2735 33.5171C37.8312 33.5228 43.9523 39.5952 43.9465 47.0809C43.9408 54.5666 37.81 60.6295 30.2523 60.6238C22.6946 60.618 16.5735 54.5457 16.5792 47.06C16.585 39.5742 22.7158 33.5114 30.2735 33.5171Z" fill="#F9C900"/>
<path fill-rule="evenodd" clip-rule="evenodd" d="M27.0108 65.147C27.0108 65.3108 26.9896 65.4746 26.9454 65.6404L24.6742 74.008C24.3992 75.0213 23.3473 75.6213 22.3242 75.3489C21.2992 75.0765 20.6935 74.0346 20.9685 73.0213L23.2396 64.6537C23.5146 63.6404 24.5665 63.0404 25.5896 63.3108C26.4473 63.5394 27.0108 64.3089 27.0108 65.147Z" fill="#F9C900"/>
<path fill-rule="evenodd" clip-rule="evenodd" d="M17.5054 61.7118C17.5054 62.2242 17.2977 62.7346 16.8862 63.108L10.4535 68.9803C9.67462 69.6908 8.46116 69.6413 7.74386 68.8699C7.02462 68.0984 7.07462 66.8965 7.85347 66.1842L14.2862 60.3137C15.0669 59.6032 16.2804 59.6508 16.9977 60.4242C17.3381 60.788 17.5054 61.2508 17.5054 61.7118Z" fill="#F9C900"/>
<mask id="mask0_0_344" style="mask-type:luminance" maskUnits="userSpaceOnUse" x="0" y="50" width="13" height="7">
<path fill-rule="evenodd" clip-rule="evenodd" d="M0 50.583V56.5527H12.3067V50.583L0 50.583L0 50.583Z" fill="white"/>
</mask>
<g mask="url(#mask0_0_344)">
<path fill-rule="evenodd" clip-rule="evenodd" d="M12.3067 52.486C12.3067 53.3317 11.7317 54.1012 10.8683 54.3222L2.39904 56.4917C1.37404 56.7546 0.325961 56.1432 0.060576 55.1279C-0.202886 54.1127 0.412499 53.0746 1.43942 52.8117L9.90865 50.6441C10.9337 50.3812 11.9798 50.9908 12.2452 52.0079C12.2875 52.1679 12.3067 52.3279 12.3067 52.486Z" fill="#F9C900"/>
</g>
<path fill-rule="evenodd" clip-rule="evenodd" d="M12.576 41.8407C12.576 41.9969 12.5567 42.155 12.5144 42.315C12.251 43.3303 11.2048 43.9417 10.1798 43.6807L1.70673 41.5207C0.681729 41.2598 0.0644211 40.2217 0.327883 39.2064C0.591344 38.1912 1.6375 37.5798 2.66442 37.8407L11.1356 40.0007C12.001 40.2217 12.576 40.9931 12.576 41.8407Z" fill="#F9C900"/>
<path fill-rule="evenodd" clip-rule="evenodd" d="M17.4581 32.5882C17.4581 33.0644 17.2792 33.5406 16.9177 33.9082C16.1812 34.6625 14.9658 34.6816 14.2042 33.952L7.92155 27.9235C7.16001 27.194 7.14078 25.992 7.87732 25.2378C8.61386 24.4835 9.82924 24.4644 10.5908 25.194L16.8735 31.2206C17.2639 31.594 17.4581 32.0911 17.4581 32.5882Z" fill="#F9C900"/>
<path fill-rule="evenodd" clip-rule="evenodd" d="M26.3706 27.3052C26.3706 28.1547 25.7898 28.9281 24.9206 29.1452C23.8937 29.4023 22.8494 28.7852 22.5917 27.7662L20.4533 19.3642C20.1956 18.3452 20.8187 17.3147 21.8456 17.0576C22.8725 16.8023 23.9167 17.4195 24.1744 18.4366L26.3129 26.8385C26.3514 26.9947 26.3706 27.1509 26.3706 27.3052Z" fill="#F9C900"/>
<path fill-rule="evenodd" clip-rule="evenodd" d="M39.2136 19.5223C39.2136 19.6823 39.1925 19.8442 39.1502 20.0061L36.9271 28.3852C36.6579 29.4004 35.6079 30.0061 34.5829 29.7395C33.5598 29.4728 32.9463 28.4328 33.2156 27.4195L35.4386 19.0385C35.7079 18.0252 36.7579 17.4176 37.7829 17.6842C38.6444 17.909 39.2136 18.6785 39.2136 19.5223Z" fill="#F9C900"/>
<path fill-rule="evenodd" clip-rule="evenodd" d="M53.1248 26.7574C53.1248 27.2869 52.9017 27.8145 52.4652 28.1897L45.8652 33.8774C45.0671 34.565 43.8537 34.4812 43.1594 33.6907C42.4633 32.8983 42.5479 31.6983 43.3479 31.0088L49.9479 25.3231C50.746 24.6336 51.9575 24.7174 52.6537 25.5097C52.971 25.8697 53.1248 26.3155 53.1248 26.7574Z" fill="#F9C900"/>
<path fill-rule="evenodd" clip-rule="evenodd" d="M59.9267 39.4385C59.9267 40.2728 59.3671 41.0366 58.5152 41.269L50.0806 43.5604C49.0575 43.8385 48.0017 43.2442 47.7229 42.2309C47.4421 41.2175 48.0421 40.1737 49.0652 39.8956L57.4998 37.6042C58.5229 37.3261 59.5767 37.9204 59.8575 38.9337C59.9037 39.1014 59.9267 39.2709 59.9267 39.4385Z" fill="#F9C900"/>
<path fill-rule="evenodd" clip-rule="evenodd" d="M59.7817 54.2526C59.7817 54.4088 59.7625 54.5669 59.7202 54.7269C59.4567 55.7421 58.4106 56.3535 57.3856 56.0926L48.9125 53.9326C47.8875 53.6716 47.2683 52.6355 47.5337 51.6183C47.7971 50.6031 48.8433 49.9916 49.8702 50.2526L58.3414 52.4126C59.2067 52.6335 59.7817 53.405 59.7817 54.2526Z" fill="#F9C900"/>
<path fill-rule="evenodd" clip-rule="evenodd" d="M52.6179 67.2996C52.6179 67.793 52.4256 68.2844 52.041 68.6558C51.2833 69.3911 50.0679 69.3777 49.3275 68.6273L43.2121 62.4311C42.4717 61.6806 42.4852 60.4787 43.2429 59.7454C44.0006 59.0101 45.216 59.0235 45.9563 59.7739L52.0717 65.9701C52.4371 66.3396 52.6179 66.8196 52.6179 67.2996Z" fill="#F9C900"/>
<path fill-rule="evenodd" clip-rule="evenodd" d="M39.4106 74.3068C39.4106 75.1449 38.8471 75.9106 37.9914 76.1392C36.9683 76.4116 35.9144 75.8116 35.6394 74.7982L33.3625 66.4325C33.0875 65.4192 33.6933 64.3773 34.7164 64.103C35.7394 63.8306 36.7933 64.4306 37.0683 65.444L39.3433 73.8097C39.3894 73.9754 39.4106 74.143 39.4106 74.3068Z" fill="#F9C900"/>
<path fill-rule="evenodd" clip-rule="evenodd" d="M89.301 49.5733C94.8394 49.5733 99.3452 54.0952 99.3452 59.6571C99.3452 65.2152 94.8394 69.7371 89.301 69.7371H45.6298C38.6798 69.7371 33.024 64.059 33.024 57.08C33.024 50.1009 38.6798 44.4228 45.6298 44.4228C46.924 44.4228 48.2106 44.6228 49.449 45.0171L50.2587 45.2742L50.5433 44.4723C53.2125 36.939 60.3452 31.8781 68.2914 31.8781C78.0067 31.8781 86.0702 39.1847 87.049 48.8761L87.1394 49.7733L88.0317 49.6628C88.524 49.6019 88.9279 49.5733 89.301 49.5733Z" fill="#C8D0D6"/>
<path fill-rule="evenodd" clip-rule="evenodd" d="M17.7248 60.0628C11.6075 60.0628 6.62866 65.0419 6.62866 71.1638C6.62866 77.2819 11.6075 82.2628 17.7248 82.2628H65.969C73.6498 82.2628 79.896 76.0114 79.896 68.3276C79.896 60.6438 73.6498 54.3924 65.969 54.3924C64.5402 54.3924 63.119 54.6133 61.7498 55.0457L60.8575 55.3295L60.5421 54.4457C57.594 46.1524 49.7133 40.5809 40.9344 40.5809C30.2017 40.5809 21.294 48.6266 20.2133 59.2952L20.1133 60.2838L19.1287 60.1619C18.5825 60.0933 18.1364 60.0628 17.7248 60.0628Z" fill="#EDF3F9"/>
</g>
<defs>
<clipPath id="clip0_0_344">
<rect width="100" height="66" fill="white" transform="translate(0 17)"/>
</clipPath>
</defs>
</svg>
