<svg width="100" height="100" viewBox="0 0 100 100" fill="none" xmlns="http://www.w3.org/2000/svg">
<g clip-path="url(#clip0_0_614)">
<path fill-rule="evenodd" clip-rule="evenodd" d="M34.9606 77.5138C34.9606 80.3657 32.6177 82.6785 29.7285 82.6785C26.8394 82.6785 24.4987 80.3657 24.4987 77.5138C24.4987 74.6619 26.8394 72.3492 29.7285 72.3492C32.6177 72.3492 34.9606 74.6619 34.9606 77.5138Z" fill="#4FB4ED"/>
<path fill-rule="evenodd" clip-rule="evenodd" d="M54.2963 77.5138C54.2963 80.3657 51.9534 82.6785 49.0642 82.6785C46.1751 82.6785 43.8344 80.3657 43.8344 77.5138C43.8344 74.6619 46.1751 72.3492 49.0642 72.3492C51.9534 72.3492 54.2963 74.6619 54.2963 77.5138Z" fill="#4FB4ED"/>
<path fill-rule="evenodd" clip-rule="evenodd" d="M73.8304 77.5138C73.8304 80.3657 71.4875 82.6785 68.5984 82.6785C65.7092 82.6785 63.3685 80.3657 63.3685 77.5138C63.3685 74.6619 65.7092 72.3492 68.5984 72.3492C71.4875 72.3492 73.8304 74.6619 73.8304 77.5138Z" fill="#4FB4ED"/>
<path fill-rule="evenodd" clip-rule="evenodd" d="M20.6576 39.1716C13.6793 39.1716 7.99976 44.8321 7.99976 51.792C7.99976 58.7475 13.6793 64.4102 20.6576 64.4102H75.6917C84.4535 64.4102 91.5788 57.3031 91.5788 48.5676C91.5788 39.8321 84.4535 32.725 75.6917 32.725C74.0618 32.725 72.4406 32.9762 70.8787 33.4678L69.8608 33.7904L69.501 32.7856C66.138 23.3572 57.1481 17.0232 47.1337 17.0232C34.8905 17.0232 24.7292 26.1701 23.4963 38.2989L23.3822 39.4228L22.259 39.2842C21.636 39.2063 21.127 39.1716 20.6576 39.1716Z" fill="#D6E3F2"/>
</g>
<defs>
<clipPath id="clip0_0_614">
<rect width="84" height="66" fill="white" transform="translate(8 17)"/>
</clipPath>
</defs>
</svg>
