<svg width="101" height="100" viewBox="0 0 101 100" fill="none" xmlns="http://www.w3.org/2000/svg">
<g clip-path="url(#clip0_0_555)">
<path fill-rule="evenodd" clip-rule="evenodd" d="M34.37 11.0025C31.2037 23.7501 26.4088 61.4105 75.8955 60.4919C77.2354 60.467 78.0476 61.9537 77.2705 63.0527C73.8877 67.832 64.6854 77.0361 44.7019 75.3421C44.7019 75.3421 15.9903 71.7737 14.7514 39.2576C14.7514 39.2576 13.597 20.3103 31.7788 9.08452C33.1043 8.26758 34.7473 9.48677 34.37 11.0025Z" fill="#ADC1E3"/>
<path fill-rule="evenodd" clip-rule="evenodd" d="M31.8897 43.1161C32.3041 46.6078 29.8242 49.774 26.3548 50.1908C22.8833 50.6075 19.7335 48.1132 19.3212 44.6235C18.9068 41.1318 21.3847 37.9636 24.8561 37.5489C28.3276 37.1321 31.4754 39.6244 31.8897 43.1161Z" fill="#8AA1C4"/>
<path fill-rule="evenodd" clip-rule="evenodd" d="M40.3919 61.7448C40.7052 64.3843 38.8314 66.7771 36.2072 67.0922C33.5829 67.4074 31.2041 65.5226 30.8907 62.8831C30.5774 60.2436 32.4512 57.8508 35.0754 57.5356C37.6996 57.2205 40.0785 59.1052 40.3919 61.7448Z" fill="#8AA1C4"/>
<path fill-rule="evenodd" clip-rule="evenodd" d="M49.8396 61.4163C50.0994 63.6183 48.5368 65.6151 46.3496 65.8763C44.1604 66.1397 42.1752 64.568 41.9155 62.366C41.6537 60.166 43.2162 58.1672 45.4055 57.9059C47.5927 57.6426 49.5778 59.2143 49.8396 61.4163Z" fill="#8AA1C4"/>
<path fill-rule="evenodd" clip-rule="evenodd" d="M65.5391 65.5493C65.7349 67.2081 64.5578 68.7134 62.9087 68.9125C61.2595 69.1095 59.7629 67.9234 59.5651 66.2647C59.3692 64.6059 60.5463 63.1006 62.1954 62.9036C63.8466 62.7045 65.3432 63.8906 65.5391 65.5493Z" fill="#8AA1C4"/>
<path fill-rule="evenodd" clip-rule="evenodd" d="M30.5496 29.9305C30.7454 31.5893 29.5683 33.0947 27.9192 33.2937C26.27 33.4907 24.7734 32.3047 24.5756 30.6459C24.3797 28.9871 25.5568 27.4818 27.2059 27.2848C28.8571 27.0858 30.3537 28.2718 30.5496 29.9305Z" fill="#8AA1C4"/>
<path fill-rule="evenodd" clip-rule="evenodd" d="M88.6201 55.7603C94.557 55.7603 99.3869 60.6827 99.3869 66.7372C99.3869 72.7876 94.557 77.71 88.6201 77.71H41.8071C34.357 77.71 28.2944 71.529 28.2944 63.9318C28.2944 56.3346 34.357 50.1536 41.8071 50.1536C43.1944 50.1536 44.5735 50.3714 45.9011 50.8006L46.7689 51.0805L47.074 50.2076C49.9353 42.007 57.5811 36.4978 66.0989 36.4978C76.5133 36.4978 85.1569 44.4516 86.2061 55.0014L86.303 55.978L87.2595 55.8577C87.7873 55.7914 88.2202 55.7603 88.6201 55.7603Z" fill="#BAC6D1"/>
<path fill-rule="evenodd" clip-rule="evenodd" d="M11.8943 67.1789C5.33686 67.1789 -0.000183105 72.5989 -0.000183105 79.263C-0.000183105 85.923 5.33686 91.3451 11.8943 91.3451H63.6094C71.8427 91.3451 78.5383 84.54 78.5383 76.1757C78.5383 67.8113 71.8427 61.0062 63.6094 61.0062C62.0777 61.0062 60.5543 61.2467 59.0866 61.7174L58.1301 62.0263L57.792 61.0642C54.6319 52.0364 46.1841 45.9715 36.7737 45.9715C25.2688 45.9715 15.7203 54.7298 14.5618 66.3433L14.4546 67.4194L13.3991 67.2867C12.8137 67.2121 12.3354 67.1789 11.8943 67.1789Z" fill="#D6E3F2"/>
</g>
<defs>
<clipPath id="clip0_0_555">
<rect width="100" height="84" fill="white" transform="translate(0 8)"/>
</clipPath>
</defs>
</svg>
