<svg width="100" height="100" viewBox="0 0 100 100" fill="none" xmlns="http://www.w3.org/2000/svg">
<g clip-path="url(#clip0_0_507)">
<mask id="mask0_0_507" style="mask-type:luminance" maskUnits="userSpaceOnUse" x="10" y="11" width="80" height="47">
<path fill-rule="evenodd" clip-rule="evenodd" d="M49.6679 11.8645H10V57.3845H89.3357V11.8645H49.6679Z" fill="white"/>
</mask>
<g mask="url(#mask0_0_507)">
<path fill-rule="evenodd" clip-rule="evenodd" d="M22.015 33.1403C15.391 33.1403 9.99976 38.5779 9.99976 45.2635C9.99976 51.9449 15.391 57.3845 22.015 57.3845H74.2552C82.5722 57.3845 89.3357 50.5575 89.3357 42.1661C89.3357 33.7748 82.5722 26.9477 74.2552 26.9477C72.708 26.9477 71.1691 27.189 69.6865 27.6612L68.7203 27.9711L68.3788 27.006C65.1865 17.949 56.653 11.8645 47.147 11.8645C35.5254 11.8645 25.8798 20.6511 24.7096 32.302L24.6013 33.3816L23.5351 33.2485C22.9437 33.1736 22.4606 33.1403 22.015 33.1403Z" fill="#D6E3F2"/>
</g>
<path fill-rule="evenodd" clip-rule="evenodd" d="M35.5918 69.9717C35.5918 72.7113 33.3678 74.9329 30.6254 74.9329C27.8829 74.9329 25.661 72.7113 25.661 69.9717C25.661 67.2322 27.8829 65.0106 30.6254 65.0106C33.3678 65.0106 35.5918 67.2322 35.5918 69.9717Z" fill="#4FB4ED"/>
<path fill-rule="evenodd" clip-rule="evenodd" d="M53.9459 69.9717C53.9459 72.7113 51.722 74.9329 48.9795 74.9329C46.237 74.9329 44.0151 72.7113 44.0151 69.9717C44.0151 67.2322 46.237 65.0106 48.9795 65.0106C51.722 65.0106 53.9459 67.2322 53.9459 69.9717Z" fill="#4FB4ED"/>
<path fill-rule="evenodd" clip-rule="evenodd" d="M72.4884 69.9717C72.4884 72.7113 70.2644 74.9329 67.522 74.9329C64.7795 74.9329 62.5576 72.7113 62.5576 69.9717C62.5576 67.2322 64.7795 65.0106 67.522 65.0106C70.2644 65.0106 72.4884 67.2322 72.4884 69.9717Z" fill="#4FB4ED"/>
<mask id="mask1_0_507" style="mask-type:luminance" maskUnits="userSpaceOnUse" x="35" y="78" width="11" height="11">
<path fill-rule="evenodd" clip-rule="evenodd" d="M35.0948 88.2977H45.0256V78.376H35.0948V88.2977H35.0948Z" fill="white"/>
</mask>
<g mask="url(#mask1_0_507)">
<path fill-rule="evenodd" clip-rule="evenodd" d="M45.0256 83.3371C45.0256 86.0767 42.8017 88.2983 40.0592 88.2983C37.3167 88.2983 35.0948 86.0767 35.0948 83.3371C35.0948 80.5976 37.3167 78.376 40.0592 78.376C42.8017 78.376 45.0256 80.5976 45.0256 83.3371Z" fill="#4FB4ED"/>
</g>
<mask id="mask2_0_507" style="mask-type:luminance" maskUnits="userSpaceOnUse" x="53" y="78" width="11" height="11">
<path fill-rule="evenodd" clip-rule="evenodd" d="M53.422 88.2977H63.3528V78.376H53.422V88.2977H53.422Z" fill="white"/>
</mask>
<g mask="url(#mask2_0_507)">
<path fill-rule="evenodd" clip-rule="evenodd" d="M63.3528 83.3371C63.3528 86.0767 61.1288 88.2983 58.3863 88.2983C55.6439 88.2983 53.422 86.0767 53.422 83.3371C53.422 80.5976 55.6439 78.376 58.3863 78.376C61.1288 78.376 63.3528 80.5976 63.3528 83.3371Z" fill="#4FB4ED"/>
</g>
<mask id="mask3_0_507" style="mask-type:luminance" maskUnits="userSpaceOnUse" x="72" y="78" width="11" height="11">
<path fill-rule="evenodd" clip-rule="evenodd" d="M72.4891 88.2977H82.4199V78.376H72.4891V88.2977H72.4891Z" fill="white"/>
</mask>
<g mask="url(#mask3_0_507)">
<path fill-rule="evenodd" clip-rule="evenodd" d="M82.4199 83.3371C82.4199 86.0767 80.196 88.2983 77.4535 88.2983C74.711 88.2983 72.4891 86.0767 72.4891 83.3371C72.4891 80.5976 74.711 78.376 77.4535 78.376C80.196 78.376 82.4199 80.5976 82.4199 83.3371Z" fill="#4FB4ED"/>
</g>
</g>
<defs>
<clipPath id="clip0_0_507">
<rect width="80" height="78" fill="white" transform="translate(10 11)"/>
</clipPath>
</defs>
</svg>
