<svg width="100" height="100" viewBox="0 0 100 100" fill="none" xmlns="http://www.w3.org/2000/svg">
<g clip-path="url(#clip0_0_451)">
<path fill-rule="evenodd" clip-rule="evenodd" d="M62.9447 60.2432C62.9447 60.2432 60.2 67.7157 60.8936 70.5759C61.4681 72.9374 63.8638 74.3889 66.2383 73.8113C68.6191 73.2316 70.0745 70.8402 69.5021 68.4787C68.8085 65.6205 62.9447 60.2432 62.9447 60.2432Z" fill="#38A1E8"/>
<path fill-rule="evenodd" clip-rule="evenodd" d="M79.9981 59.9265C79.9981 59.9265 77.2535 67.3989 77.9471 70.2571C78.5215 72.6207 80.9173 74.0722 83.2917 73.4946C85.6726 72.9149 87.1279 70.5235 86.5556 68.162C85.862 65.3038 79.9981 59.9265 79.9981 59.9265Z" fill="#38A1E8"/>
<path fill-rule="evenodd" clip-rule="evenodd" d="M14.3849 61.2008C14.3849 61.2008 11.6402 68.6733 12.3338 71.5314C12.9083 73.8951 15.304 75.3465 17.6785 74.7689C20.0593 74.1892 21.5146 71.7978 20.9423 69.4363C20.2487 66.5782 14.3849 61.2008 14.3849 61.2008Z" fill="#38A1E8"/>
<path fill-rule="evenodd" clip-rule="evenodd" d="M26.2074 77.4525C26.2074 77.4525 23.45 84.876 24.1393 87.7107C24.7074 90.0551 27.0989 91.4917 29.4755 90.9141C31.8563 90.3344 33.3159 87.96 32.7457 85.6156C32.0585 82.7787 26.2074 77.4525 26.2074 77.4525Z" fill="#38A1E8"/>
<path fill-rule="evenodd" clip-rule="evenodd" d="M56.6876 76.4757C56.6876 76.4757 53.9302 83.8992 54.6195 86.7339C55.1876 89.0783 57.5791 90.5149 59.9557 89.9373C62.3366 89.3575 63.7961 86.9832 63.2259 84.6388C62.5387 81.8019 56.6876 76.4757 56.6876 76.4757Z" fill="#38A1E8"/>
<path fill-rule="evenodd" clip-rule="evenodd" d="M74.7088 75.643C74.7088 75.643 71.9513 83.0665 72.6407 85.9012C73.2088 88.2456 75.6002 89.6822 77.9768 89.1046C80.3577 88.5248 81.8173 86.1505 81.2471 83.8061C80.5598 80.9692 74.7088 75.643 74.7088 75.643Z" fill="#38A1E8"/>
<path fill-rule="evenodd" clip-rule="evenodd" d="M28.3457 65.8844H42.3734L41.633 63.8234C40.2947 60.0978 39.0798 56.7218 38.6968 55.6646C38.0585 53.8999 38.033 52.5273 38.6266 51.7003C39.1117 51.0226 39.8819 50.8819 40.0606 50.8819H44.3074C46.9691 50.8819 48.5947 53.5397 49.1755 55.8138C49.3564 56.5236 49.567 57.3399 49.7968 58.2329C50.7223 61.8221 51.9904 66.7391 52.8713 70.5734C53.4947 73.2866 52.8798 74.4226 52.5862 74.7849C52.3138 75.1217 51.9351 75.2836 51.4266 75.2836H36.8287L41.9393 89.8791C42.1755 90.5505 42.1393 90.9213 42.0968 91.0385C41.9032 91.0662 41.2074 90.9064 40.5798 90.0048C37.6074 85.7315 30.1159 74.6805 26.8457 69.6484C26.0542 68.4292 25.8032 67.4254 26.1393 66.8201C26.4457 66.2702 27.3521 65.8844 28.3457 65.8844Z" fill="#F9C900"/>
<path fill-rule="evenodd" clip-rule="evenodd" d="M88.073 33.89C94.2007 33.89 99.1858 38.9498 99.1858 45.1733C99.1858 51.3926 94.2007 56.4524 88.073 56.4524H39.756C32.0667 56.4524 25.8092 50.0988 25.8092 42.2896C25.8092 34.4803 32.0667 28.1268 39.756 28.1268C41.1879 28.1268 42.6113 28.3506 43.9815 28.7918L44.8773 29.0795L45.1922 28.1822C48.1454 19.7528 56.0369 14.0898 64.8284 14.0898C75.5773 14.0898 84.4986 22.2656 85.5815 33.1099L85.6815 34.1138L86.6688 33.9901C87.2135 33.9219 87.6603 33.89 88.073 33.89Z" fill="#D6E3F2"/>
<path fill-rule="evenodd" clip-rule="evenodd" d="M12.2764 31.6774C5.50827 31.6774 -0.000244141 37.2488 -0.000244141 44.0989C-0.000244141 50.9448 5.50827 56.5182 12.2764 56.5182H65.6529C74.1508 56.5182 81.0615 49.5232 81.0615 40.9253C81.0615 32.3275 74.1508 25.3324 65.6529 25.3324C64.0721 25.3324 62.4998 25.5797 60.9849 26.0635L59.9976 26.381L59.6487 25.3921C56.387 16.1122 47.6678 9.87805 37.9551 9.87805C26.0806 9.87805 16.2253 18.8808 15.0295 30.8185L14.9189 31.9247L13.8295 31.7883C13.2253 31.7115 12.7317 31.6774 12.2764 31.6774Z" fill="#BAC6D1"/>
</g>
<defs>
<clipPath id="clip0_0_451">
<rect width="100" height="83" fill="white" transform="translate(0 9)"/>
</clipPath>
</defs>
</svg>
